Coordinates
version=1
nRows=9
nColumns=55
inDegrees=yes

Units are S.I. units (second, meters, Newtons, ...)
If the header above contains a line with 'inDegrees', this indicates whether rotational values are in degrees (yes) or radians (no).

endheader
time	pelvis_tilt	pelvis_list	pelvis_rotation	pelvis_tx	pelvis_ty	pelvis_tz	hip_flexion_r	hip_adduction_r	hip_rotation_r	knee_angle_r	knee_angle_r_beta	ankle_angle_r	subtalar_angle_r	mtp_angle_r	hip_flexion_l	hip_adduction_l	hip_rotation_l	knee_angle_l	knee_angle_l_beta	ankle_angle_l	subtalar_angle_l	mtp_angle_l	lumbar_extension	lumbar_bending	lumbar_rotation	torso_tx	torso_ty	torso_tz	arm_flex_r	arm_add_r	arm_rot_r	shoulder_rx	shoulder_ry	shoulder_rz	elbow_flex_r	pro_sup_r	wrist_flex_r	wrist_dev_r	arm_flex_l	arm_add_l	arm_rot_l	shoulder_lx	shoulder_ly	shoulder_lz	elbow_flex_l	pro_sup_l	wrist_flex_l	wrist_dev_l	neck_extension	neck_bending	neck_rotation	head_tx	head_ty	head_tz
     12.43000000	      2.65907594	     -1.35624150	      1.81022329	      0.49613592	      1.28335840	     -0.10819217	     -5.85838752	     -5.31834103	    -16.89579013	     13.06533924	      0.22803319	    -33.69309712	     12.11899088	      8.90007020	     -4.68926587	    -11.01396948	    -16.51218509	      8.92567978	      0.15578250	    -41.47834257	      7.83720845	     11.97335992	     -4.12218986	      0.89709607	      1.03059488	      0.09889525	      0.03228119	     -0.00181763	    -25.55612210	    -41.30295554	     45.57256759	     -0.02834039	     -0.03108875	     -0.02008758	     85.81367501	     43.29558622	      9.89300822	    -50.65422377	    -18.21091557	    -48.87375765	     56.65568991	     -0.01245413	     -0.02593943	      0.01173070	     97.70323388	     39.47975953	      1.67676026	    -38.76855713	     31.59171629	     -0.64177323	     -0.37079763	      0.01740491	      0.01612130	     -0.00091801
     12.44000000	      3.02706046	     -1.76032086	      2.09816768	      0.49854689	      1.29683198	     -0.10864312	     -6.25878938	     -4.70597566	    -14.55621638	     14.54318653	      0.25382649	    -28.80483366	     15.41412550	      8.38315849	     -6.26195972	    -11.13067918	    -15.17972952	      7.06281151	      0.12326932	    -36.93776301	      9.07927199	     11.76716871	     -3.41518775	      1.20803930	      0.46493780	      0.10157071	      0.03247587	      0.00035373	    -24.52028668	    -41.33481946	     47.02263837	     -0.03024293	     -0.02979661	     -0.01967434	     84.86412715	     43.13913770	     10.07091578	    -49.89783992	    -16.80858732	    -49.24452147	     58.84440677	     -0.01566413	     -0.02514390	      0.01198453	     97.10945242	     39.37101113	      1.78975564	    -38.45393616	     30.46245616	      0.05542956	     -0.15443185	      0.01747390	      0.01606526	     -0.00243821
     12.45000000	      3.03707487	     -1.74079962	      2.07868171	      0.50057688	      1.30943774	     -0.10876214	     -6.51432859	     -4.59422204	    -14.53039519	     14.62390300	      0.25523526	    -28.79765032	     15.45231089	      8.38334756	     -6.19538931	    -11.07116183	    -15.19192627	      7.02959951	      0.12268966	    -36.89704466	      9.08311077	     11.76524807	     -3.22007843	      1.16810249	      0.47044039	      0.09885544	      0.03284678	      0.00053521	    -24.45933423	    -41.35801851	     47.00195704	     -0.02890026	     -0.03004110	     -0.01879198	     84.86038403	     43.13363344	     10.07224526	    -49.89417027	    -16.75134484	    -49.24981840	     58.83971552	     -0.01331539	     -0.02689189	      0.01109312	     97.09431608	     39.36495536	      1.78888566	    -38.45216996	     30.46201312	      0.06053153	     -0.15119343	      0.01565840	      0.01675581	     -0.00235882
     12.46000000	      3.15241805	     -1.63017160	      2.83370947	      0.50270229	      1.32091621	     -0.10937202	     -6.91240179	     -4.40553899	    -14.19186202	     14.67637519	      0.25615107	    -28.38414971	     15.85093983	      8.34762559	     -6.31474581	    -11.05444299	    -15.60567000	      6.49361242	      0.11333492	    -36.08612268	      8.93832837	     11.69385319	     -2.53784154	      0.95569121	      0.34983843	      0.09954988	      0.03335240	      0.00196100	    -24.14763156	    -41.44117639	     46.94617061	     -0.03448770	     -0.03002282	     -0.01979633	     84.82173981	     43.09759287	     10.08616203	    -49.85744164	    -16.50103762	    -49.31488707	     59.04210362	     -0.01001616	     -0.02673452	      0.01040218	     96.95670613	     39.31626720	      1.78390942	    -38.40714209	     30.33307789	      0.09035859	     -0.12327087	      0.01800315	      0.01745336	     -0.00271753
     12.47000000	      2.83454924	     -1.55955854	      3.13140278	      0.50595770	      1.33135869	     -0.10981673	     -7.36840871	     -4.19391568	    -13.72988843	     13.91016047	      0.24277810	    -26.18360316	     17.08880726	      8.13095144	     -7.02140763	    -10.65982413	    -16.73997790	      4.56038472	      0.07959373	    -32.99573182	      8.44331806	     11.42399255	     -1.73226552	      0.73956826	     -0.76769123	      0.09722916	      0.03388175	      0.00290525	    -23.95944701	    -41.49191872	     47.43975365	     -0.03155855	     -0.03011032	     -0.01912579	     84.63603255	     43.02890637	     10.15011026	    -49.70001942	    -16.00536775	    -49.62023859	     60.37699093	     -0.01269959	     -0.02587339	      0.01145928	     96.31403474	     39.11869510	      1.75440020	    -38.16275706	     29.80667753	      0.14296492	     -0.08430561	      0.01570031	      0.01752376	     -0.00230024
     12.48000000	      2.93348772	     -1.52497760	      3.10248609	      0.50716310	      1.34140751	     -0.10960314	     -7.46343153	     -4.17512610	    -13.72296065	     13.92047570	      0.24295813	    -26.15949506	     17.10848317	      8.12875119	     -6.95340677	    -10.70839701	    -16.74782607	      4.51549309	      0.07881022	    -32.95047797	      8.43168014	     11.42047246	     -1.60099003	      0.69110116	     -0.75406361	      0.09632561	      0.03391996	      0.00255247	    -23.93930979	    -41.50570108	     47.44145332	     -0.03101079	     -0.02955862	     -0.01855132	     84.64017895	     43.02724826	     10.15195374	    -49.69855773	    -15.93898006	    -49.61537989	     60.36193466	     -0.01080610	     -0.02636598	      0.01123995	     96.31208030	     39.11156627	      1.75243785	    -38.16262384	     29.80302103	      0.14351567	     -0.08094062	      0.01445106	      0.01774330	     -0.00265336
     12.49000000	      2.86994076	     -1.33894267	      3.35237951	      0.50954198	      1.35008179	     -0.10969855	     -8.00743386	     -4.12118534	    -13.93163401	     13.21753313	      0.23068947	    -25.05210626	     17.33431861	      8.01848054	     -7.33631589	    -10.38958290	    -17.68665090	      3.53101496	      0.06162784	    -31.19423940	      7.69667116	     11.26397065	     -0.92651653	      0.32637677	     -0.61252985	      0.09666067	      0.03385183	      0.00318800	    -23.98706430	    -41.52566353	     47.82263150	     -0.03339258	     -0.02913664	     -0.01927864	     84.71304618	     43.00394505	     10.20755744	    -49.66341605	    -15.24119178	    -49.60723704	     60.85553531	     -0.01129039	     -0.02461551	      0.01071958	     96.06259384	     38.95561981	      1.69490908	    -38.09158747	     29.37532487	      0.17680493	     -0.02357776	      0.01534672	      0.01818209	     -0.00239123
     12.50000000	      2.94021590	     -1.32011554	      3.35343133	      0.51087900	      1.35832914	     -0.10934495	     -8.02988490	     -4.10379829	    -13.93777771	     13.20617882	      0.23049130	    -25.03499843	     17.33442448	      8.01689461	     -7.37860695	    -10.41370221	    -17.71872083	      3.51484580	      0.06134563	    -31.15049658	      7.66429743	     11.26000015	     -0.79658298	      0.27008545	     -0.62199874	      0.09567051	      0.03386253	      0.00262547	    -23.96544922	    -41.53317396	     47.81501768	     -0.03324382	     -0.02901698	     -0.01876917	     84.72034311	     43.00140511	     10.20900753	    -49.66518155	    -15.18669590	    -49.59855285	     60.84890706	     -0.00988241	     -0.02494357	      0.01122942	     96.06087068	     38.94965797	      1.69253772	    -38.09234755	     29.37249780	      0.17057207	     -0.02216788	      0.01383892	      0.01835761	     -0.00326998
     12.51000000	      2.99043402	     -0.94807171	      3.39883630	      0.51317083	      1.36527956	     -0.10910815	     -8.65885372	     -4.28806902	    -14.62699163	     12.33557569	      0.21529641	    -24.45661872	     16.70999495	      7.96625013	     -7.93367323	     -9.76194693	    -19.51757288	      2.75196635	      0.04803087	    -29.21569081	      6.00273522	     11.08205625	     -0.26239305	     -0.24834214	     -0.63832171	      0.09709581	      0.03407000	      0.00260772	    -24.01833317	    -41.47839132	     48.04725931	     -0.03605463	     -0.02913232	     -0.01956734	     84.94123002	     42.93997079	     10.26815065	    -49.73357237	    -14.38437098	    -49.59522204	     61.44368779	     -0.01343794	     -0.02394124	      0.01148381	     95.80434375	     38.79533204	      1.60788265	    -38.10509415	     28.78896619	      0.14766850	      0.00040718	      0.01315719	      0.01799947	     -0.00371818
